<svg width="21" height="21" viewBox="0 0 21 21" fill="none" xmlns="http://www.w3.org/2000/svg">
<path d="M17.5833 5.58333V8.8225C17.5833 8.8225 15.4275 8.83333 15.4167 8.8225V5.58333H12.1667C12.1667 5.58333 12.1775 3.4275 12.1667 3.41667H15.4167V0.166667H17.5833V3.41667H20.8333V5.58333H17.5833ZM14.3333 9.91667V6.66667H11.0833V3.41667H2.41667C1.225 3.41667 0.25 4.39167 0.25 5.58333V18.5833C0.25 19.775 1.225 20.75 2.41667 20.75H15.4167C16.6083 20.75 17.5833 19.775 17.5833 18.5833V9.91667H14.3333ZM2.41667 18.5833L5.66667 14.25L7.83333 17.5L11.0833 13.1667L15.4167 18.5833H2.41667Z" fill="#DED5DE"/>
</svg>
