<?xml version="1.0" encoding="UTF-8" standalone="no"?>
<!-- Created with Inkscape (http://www.inkscape.org/) -->

<svg
   width="1200"
   height="720"
   viewBox="0 0 317.5 190.50001"
   version="1.1"
   id="svg5"
   inkscape:version="1.1.1 (3bf5ae0d25, 2021-09-20)"
   sodipodi:docname="Layout_teste.svg"
   inkscape:export-filename="/home/felipecn/Documents/Layout_teste.png"
   inkscape:export-xdpi="96"
   inkscape:export-ydpi="96"
   xmlns:inkscape="http://www.inkscape.org/namespaces/inkscape"
   xmlns:sodipodi="http://sodipodi.sourceforge.net/DTD/sodipodi-0.dtd"
   xmlns="http://www.w3.org/2000/svg"
   xmlns:svg="http://www.w3.org/2000/svg">
  <sodipodi:namedview
     id="namedview7"
     pagecolor="#676767"
     bordercolor="#eeeeee"
     borderopacity="1"
     inkscape:pageshadow="0"
     inkscape:pageopacity="1"
     inkscape:pagecheckerboard="true"
     inkscape:document-units="px"
     showgrid="false"
     units="px"
     inkscape:snap-object-midpoints="true"
     inkscape:zoom="1"
     inkscape:cx="690"
     inkscape:cy="339"
     inkscape:window-width="2560"
     inkscape:window-height="1026"
     inkscape:window-x="0"
     inkscape:window-y="28"
     inkscape:window-maximized="1"
     inkscape:current-layer="layer1" />
  <defs
     id="defs2">
    <inkscape:path-effect
       hide_knots="false"
       only_selected="true"
       apply_with_radius="true"
       apply_no_radius="true"
       use_knot_distance="true"
       flexible="false"
       chamfer_steps="1"
       radius="1"
       mode="F"
       method="auto"
       unit="px"
       satellites_param="F,0,0,1,0,0,0,1 @ F,0,1,1,0,0.26458333,0,1 @ F,0,0,1,0,0,0,1 @ F,0,0,1,0,0,0,1 @ F,0,1,1,0,0.26458333,0,1 @ F,0,1,1,0,0.26458333,0,1 @ F,0,0,1,0,0,0,1 @ F,0,0,1,0,0,0,1 @ F,0,1,1,0,0.26458333,0,1 @ F,0,0,1,0,0,0,1 @ F,0,1,1,0,0.26458333,0,1 @ F,0,0,1,0,0,0,1 @ F,0,0,1,0,0,0,1 @ F,0,1,1,0,0.26458333,0,1 @ F,0,1,1,0,0.26458333,0,1 @ F,0,0,1,0,0,0,1 @ F,0,0,1,0,0,0,1 @ F,0,0,1,0,0,0,1 @ F,0,1,1,0,0.26458333,0,1 @ F,0,0,1,0,0,0,1 @ F,0,1,1,0,0.26458333,0,1 @ F,0,0,1,0,0,0,1 @ F,0,0,1,0,0,0,1 @ F,0,1,1,0,0.26458333,0,1 @ F,0,1,1,0,0.26458333,0,1 @ F,0,0,1,0,0,0,1 @ F,0,0,1,0,0,0,1 @ F,0,0,1,0,0,0,1 @ F,0,1,1,0,0.26458333,0,1 @ F,0,0,1,0,0,0,1 @ F,0,1,1,0,0.26458333,0,1 @ F,0,0,1,0,0,0,1 @ F,0,0,1,0,0,0,1 @ F,0,1,1,0,0.26458333,0,1 @ F,0,1,1,0,0.26458333,0,1 @ F,0,0,1,0,0,0,1 @ F,0,0,1,0,0,0,1 @ F,0,1,1,0,0.26458333,0,1 @ F,0,0,1,0,0,0,1 @ F,0,0,1,0,0,0,1 | F,0,0,1,0,0,0,1 @ F,0,0,1,0,0,0,1 @ F,0,0,1,0,0,0,1 @ F,0,0,1,0,0,0,1"
       lpeversion="1"
       is_visible="true"
       id="path-effect1635"
       effect="fillet_chamfer" />
  </defs>
  <g
     inkscape:label="Layer 1"
     inkscape:groupmode="layer"
     id="layer1"
     style="display:inline;opacity:1">
    <rect
       style="fill:#282a36;fill-opacity:1;stroke-width:2.99667;stroke-linecap:round"
       id="rect31"
       width="317.5"
       height="190.5"
       x="4.1666667e-06"
       y="2.4999999e-06"
       sodipodi:insensitive="true" />
    <rect
       style="fill:#53475a;fill-opacity:1;stroke-width:0.611693;stroke-linecap:round"
       id="rect964"
       width="13.229167"
       height="190.5"
       x="0"
       y="-1.7763568e-15" />
    <rect
       style="fill:#c0bfc5;fill-opacity:1;stroke-width:0.598815;stroke-linecap:round"
       id="rect1408"
       width="304.27084"
       height="7.9375"
       x="13.229167"
       y="2.4999999e-06" />
    <rect
       style="fill:#c0bfc5;fill-opacity:1;stroke-width:0.598815;stroke-linecap:round"
       id="rect1408-9"
       width="304.27084"
       height="7.9375"
       x="13.229167"
       y="182.5625" />
    <path
       inkscape:export-ydpi="288.13419"
       inkscape:export-xdpi="288.13419"
       inkscape:export-filename="E:\ESTUDOS\TUTORIAIS\NEW\Qt Widgets Projects\PyOneDark\Layout\Exports\Preview_01.png"
       id="rect4"
       style="fill:#c3ccdf;fill-opacity:1;stroke-width:0.0149578"
       d="m 4.2333335,3.6989993 v 0.529166 h 4.7625001 v -0.529166 z m 0,2.1218341 v 0.529167 h 4.7625001 v -0.529167 z m 0,2.121834 v 0.529167 h 4.7625001 v -0.529167 z" />
    <path
       id="path872"
       style="fill:#c3ccdf;fill-opacity:1;stroke:#333333;stroke-width:0;stroke-linecap:round;stroke-miterlimit:4;stroke-dasharray:none"
       d="m 6.8613431,172.5083 c -0.093681,6.4e-4 -0.1871997,0.006 -0.2801627,0.0168 -0.1451336,0.0165 -0.2178365,0.13291 -0.2178503,0.24943 -7.2e-6,0.28489 -0.2309488,0.51584 -0.5158328,0.51585 -0.115515,4e-5 -0.22483,-0.0385 -0.3129588,-0.10564 -0.1149232,-0.0876 -0.259497,-0.13974 -0.3707019,-0.045 -0.129624,0.11039 -0.2482938,0.23303 -0.3543526,0.36622 -0.090983,0.11426 -0.060095,0.24801 0.022258,0.33038 0.2014445,0.20146 0.2014445,0.52807 0,0.72953 -0.081659,0.0816 -0.1861503,0.13165 -0.295927,0.14643 -0.1432137,0.0193 -0.2823089,0.0846 -0.2939976,0.23022 -0.00565,0.0704 -0.00848,0.14095 -0.00849,0.2116 1.38e-5,0.0997 0.00566,0.19924 0.016894,0.29816 0.016479,0.14513 0.1328666,0.21787 0.2492986,0.21786 0.284884,1e-5 0.5158255,0.23096 0.5158327,0.51585 -5e-6,0.11544 -0.038496,0.22468 -0.1056293,0.31275 -0.0876,0.11493 -0.1397345,0.25951 -0.045037,0.37072 0.1103825,0.12962 0.2330221,0.2483 0.3662066,0.35436 0.1142547,0.091 0.2479949,0.0601 0.3303645,-0.0222 0.09462,-0.0946 0.2223009,-0.14876 0.3560881,-0.151 0.1397958,-0.002 0.2745598,0.0521 0.3734297,0.151 0.081631,0.0817 0.1316434,0.18616 0.1464235,0.29594 0.019282,0.14321 0.084618,0.28231 0.2302139,0.29399 0.070406,0.006 0.1410459,0.008 0.2117494,0.008 0.099638,-1e-5 0.1991239,-0.006 0.2979864,-0.0169 0.1451323,-0.0165 0.2178695,-0.13286 0.2178472,-0.2493 7.3e-6,-0.28489 0.2309487,-0.51584 0.5158327,-0.51585 0.1154582,0 0.2247125,0.0385 0.3127998,0.10564 0.1149233,0.0876 0.259497,0.13974 0.3707018,0.045 0.1296238,-0.11039 0.2482933,-0.23303 0.3543519,-0.36622 0.090983,-0.11426 0.060095,-0.24801 -0.022258,-0.33038 -0.2014445,-0.20146 -0.2014445,-0.52807 0,-0.72953 0.09462,-0.0946 0.2223004,-0.14876 0.3560873,-0.151 0.1121038,-0.002 0.2223066,-0.08 0.2339954,-0.22564 0.00565,-0.0704 0.00849,-0.14105 0.00849,-0.21176 -2.35e-5,-0.0996 -0.00567,-0.19914 -0.016898,-0.29801 -0.016479,-0.14513 -0.13294,-0.21784 -0.2494585,-0.21786 -0.2848845,-1e-5 -0.5158266,-0.23096 -0.5158338,-0.51585 -6.1e-6,-0.11546 0.038487,-0.22471 0.10563,-0.3128 0.087601,-0.11493 0.139748,-0.25952 0.045065,-0.37074 -0.1103899,-0.12967 -0.2330437,-0.24838 -0.3662483,-0.35448 -0.1142465,-0.091 -0.247951,-0.06 -0.3303525,0.0224 -0.2014511,0.20146 -0.5280659,0.20146 -0.729517,0 -0.081635,-0.0817 -0.1316486,-0.18616 -0.1464275,-0.29595 -0.01928,-0.14321 -0.084614,-0.28231 -0.2302099,-0.29399 -0.070354,-0.006 -0.1409399,-0.008 -0.2115903,-0.008 -0.00594,-2e-5 -0.011879,-2e-5 -0.017819,0 z m 0.01782,1.78049 c 0.4778543,1e-5 0.8652305,0.38739 0.8652373,0.86526 8.16e-5,0.47793 -0.3873204,0.86541 -0.8652373,0.86542 -0.477917,-1e-5 -0.8653195,-0.38749 -0.8652379,-0.86542 6.8e-6,-0.47787 0.3873834,-0.86525 0.8652379,-0.86526 z" />
    <text
       xml:space="preserve"
       style="font-size:3.175px;line-height:1.25;font-family:'Segoe UI';-inkscape-font-specification:'Segoe UI';fill:#000000;fill-opacity:1;stroke-width:0.264583"
       x="16.404169"
       y="187.58958"
       id="text7407"><tspan
         sodipodi:role="line"
         id="tspan7405"
         style="font-size:3.175px;fill:#000000;fill-opacity:1;stroke-width:0.264583"
         x="16.404169"
         y="187.58958">Criado por: Felipe C. Novaes</tspan></text>
    <text
       xml:space="preserve"
       style="font-size:3.175px;line-height:1.25;font-family:'Segoe UI';-inkscape-font-specification:'Segoe UI';fill:#000000;fill-opacity:1;stroke-width:0.264583"
       x="303.60016"
       y="187.60587"
       id="text7407-6"><tspan
         sodipodi:role="line"
         id="tspan7405-7"
         style="font-size:3.175px;fill:#000000;fill-opacity:1;stroke-width:0.264583"
         x="303.60016"
         y="187.60587">© 2021</tspan></text>
    <text
       xml:space="preserve"
       style="font-size:3.175px;line-height:1.25;font-family:'Segoe UI';-inkscape-font-specification:'Segoe UI';fill:#000000;fill-opacity:1;stroke-width:0.264583"
       x="16.356882"
       y="5.0348425"
       id="text7407-5"><tspan
         sodipodi:role="line"
         id="tspan7405-9"
         style="font-size:3.175px;fill:#000000;fill-opacity:1;stroke-width:0.264583"
         x="16.356882"
         y="5.0348425">PDFUtility</tspan></text>
    <text
       xml:space="preserve"
       style="font-size:3.175px;line-height:1.25;font-family:'Segoe UI';-inkscape-font-specification:'Segoe UI';fill:#000000;fill-opacity:1;stroke-width:0.264583"
       x="288.61313"
       y="5.0348425"
       id="text21973"><tspan
         sodipodi:role="line"
         id="tspan21971"
         style="font-style:normal;font-variant:normal;font-weight:bold;font-stretch:normal;font-size:3.175px;font-family:'Segoe UI';-inkscape-font-specification:'Segoe UI Bold';fill:#000000;fill-opacity:1;stroke-width:0.264583"
         x="288.61313"
         y="5.0348425">| PÁGINA INICIAL</tspan></text>
    <rect
       style="fill:#585368;fill-opacity:1;stroke-width:3.41957;stroke-linecap:round"
       id="rect29803"
       width="13.229167"
       height="10.583334"
       x="5.5511151e-17"
       y="12.170833" />
    <rect
       style="fill:#f5f5f5;fill-opacity:1;stroke-width:1.08137;stroke-linecap:round"
       id="rect42661"
       width="1.3229167"
       height="10.583334"
       x="11.90625"
       y="12.170833" />
    <rect
       style="fill:#c0bfc5;fill-opacity:1;stroke-width:0.124861;stroke-linecap:round"
       id="rect43768"
       width="13.229167"
       height="7.9375"
       x="0"
       y="182.5625" />
    <text
       xml:space="preserve"
       style="font-size:3.175px;line-height:1.25;font-family:'Segoe UI';-inkscape-font-specification:'Segoe UI';fill:#000000;fill-opacity:1;stroke-width:0.264583"
       x="2.6528099"
       y="187.64824"
       id="text18642"><tspan
         sodipodi:role="line"
         id="tspan18640"
         style="font-size:3.175px;fill:#000000;fill-opacity:1;stroke-width:0.264583"
         x="2.6528099"
         y="187.64824">v1.0.0</tspan></text>
    <path
       d="m 6.9430489,14.572892 c -0.1235163,0.03178 -0.2343998,0.110091 -0.2877366,0.205427 -0.030879,0.05561 -0.032283,0.06696 -0.036494,0.461927 l -0.00422,0.405178 -0.3775667,0.0034 c -0.3565128,0.0034 -0.3789702,0.0045 -0.4168673,0.02724 -0.021055,0.01249 -0.053336,0.04086 -0.07018,0.06129 -0.065969,0.07718 -0.026668,0.199752 0.080004,0.248555 0.050529,0.0227 0.07018,0.02383 0.5544195,0.02383 0.5642449,0 0.5684555,-0.0011 0.635828,-0.08171 l 0.03509,-0.04427 0.00842,-0.47895 0.00842,-0.478951 0.8954926,0.813762 0.8954932,0.814897 -0.8954932,0.813762 -0.8954926,0.814898 -0.00701,-0.484625 c -0.00701,-0.466466 -0.00842,-0.485761 -0.036494,-0.51527 -0.01544,-0.01703 -0.046319,-0.04199 -0.067373,-0.05448 -0.037896,-0.02383 -0.053336,-0.02383 -1.0891889,-0.02724 l -1.0512917,-0.0023 -0.00422,-0.411989 C 4.8123682,16.2855 4.8109782,16.275285 4.7800942,16.218538 4.7085102,16.091422 4.5611335,16.016516 4.3842806,16.01538 c -0.095445,0 -0.116498,0.0045 -0.224575,0.04653 -0.065969,0.0261 -0.141763,0.06242 -0.1698349,0.07945 -0.029475,0.01816 -0.4603788,0.404043 -0.9586546,0.858026 l -0.9067215,0.826246 v 0.181592 0.181593 l 0.905318,0.826247 c 0.9909372,0.902289 1.0035697,0.912503 1.2113014,0.965846 0.077197,0.02043 0.1193053,0.02497 0.172642,0.02043 0.1501847,-0.01475 0.2835259,-0.09761 0.3593202,-0.221316 l 0.039301,-0.06469 0.00422,-0.394964 c 0.00141,-0.216776 0.00561,-0.394965 0.00701,-0.3961 0.00141,0 0.1684314,-0.0045 0.3705489,-0.0079 0.3438804,-0.0068 0.369145,-0.0079 0.4070422,-0.03064 0.1375522,-0.08285 0.1375522,-0.221316 0,-0.304168 -0.039301,-0.0227 -0.05474,-0.02383 -0.5642449,-0.02383 -0.5081008,0 -0.524944,0.0011 -0.5628411,0.02383 -0.021055,0.01249 -0.051933,0.03746 -0.067373,0.05448 -0.028072,0.02951 -0.029476,0.0488 -0.036494,0.51527 l -0.00701,0.483491 -0.8954927,-0.813763 -0.8940894,-0.813762 0.8940894,-0.813762 0.8954927,-0.813763 0.00701,0.482356 0.00701,0.48349 0.037897,0.03972 c 0.077197,0.08058 0.018246,0.07718 1.16779,0.07718 h 1.0316412 l 0.00422,0.411989 c 0.00422,0.401774 0.00561,0.411988 0.036494,0.468735 0.063162,0.112362 0.2035213,0.192943 0.3607237,0.205427 0.1066737,0.0091 0.2470327,-0.02951 0.3803741,-0.10328 0.08983,-0.04994 0.2287855,-0.172513 1.0091839,-0.882995 L 9.3109156,16.737259 V 16.554532 16.371804 L 8.3915628,15.535342 C 7.4020293,14.635323 7.4104507,14.642133 7.2097368,14.58425 7.1030643,14.55474 7.0300769,14.55134 6.9430538,14.5729 Z"
       id="path12966"
       style="fill:#c3ccdf;fill-opacity:1;stroke:none;stroke-width:0.00126214" />
    <rect
       style="fill:#f5f5f5;fill-opacity:1;stroke-width:0.264583"
       id="rect1580"
       width="304.27084"
       height="174.625"
       x="13.229167"
       y="7.9375024" />
    <text
       xml:space="preserve"
       style="font-size:5.64444px;line-height:1.25;font-family:'Segoe UI';-inkscape-font-specification:'Segoe UI';display:inline;fill:#000000;fill-opacity:1;stroke-width:0.264583"
       x="139.847"
       y="99.756081"
       id="text23928-3"><tspan
         sodipodi:role="line"
         id="tspan23926-6"
         style="font-style:normal;font-variant:normal;font-weight:bold;font-stretch:normal;font-size:5.64444px;font-family:'Segoe UI';-inkscape-font-specification:'Segoe UI Bold';fill:#000000;fill-opacity:1;stroke-width:0.264583"
         x="139.847"
         y="99.756081">PAGINA 1</tspan></text>
  </g>
</svg>
