<?xml version="1.0" encoding="UTF-8" standalone="no"?>
<svg
   width="21"
   height="21"
   viewBox="0 0 21 21"
   fill="none"
   version="1.1"
   id="svg11"
   sodipodi:docname="docx.svg"
   inkscape:version="1.2-alpha (0bd5040e, 2022-02-05)"
   xmlns:inkscape="http://www.inkscape.org/namespaces/inkscape"
   xmlns:sodipodi="http://sodipodi.sourceforge.net/DTD/sodipodi-0.dtd"
   xmlns="http://www.w3.org/2000/svg"
   xmlns:svg="http://www.w3.org/2000/svg">
  <defs
     id="defs15" />
  <sodipodi:namedview
     id="namedview13"
     pagecolor="#ffffff"
     bordercolor="#666666"
     borderopacity="1.0"
     inkscape:pageshadow="2"
     inkscape:pageopacity="0.0"
     inkscape:pagecheckerboard="0"
     inkscape:blackoutopacity="0.0"
     showgrid="false"
     inkscape:zoom="11.238095"
     inkscape:cx="-2.8474576"
     inkscape:cy="-3.3813559"
     inkscape:window-width="2560"
     inkscape:window-height="966"
     inkscape:window-x="0"
     inkscape:window-y="25"
     inkscape:window-maximized="0"
     inkscape:current-layer="svg11" />
  <g
     transform="matrix(0.00431282,0,0,-0.00431282,-0.63279478,21.504831)"
     fill="#000000"
     stroke="none"
     id="g27"
     style="fill:#ded5de;fill-opacity:1">
    <path
       d="m 1305,4935 -25,-24 V 4175 3440 H 745 209 l -24,-25 -25,-24 v -831 -831 l 25,-24 24,-25 h 536 535 V 1105 529 l 25,-24 c 23,-24 29,-25 160,-25 h 135 V 345 c 0,-131 1,-137 25,-160 l 24,-25 h 1631 1631 l 24,25 25,24 v 2191 2191 l -25,24 -24,25 h -478 -477 l -161,160 -161,160 H 2481 1329 Z m 2215,-511 c 0,-267 4,-389 12,-418 16,-55 99,-138 154,-154 29,-8 151,-12 418,-12 h 376 V 2240 640 H 2960 1440 v 520 520 h 1415 1416 l 24,25 25,24 v 831 831 l -25,24 -24,25 H 2855 1440 v 680 680 h 1040 1040 z m 505,-84 340,-340 h -318 -318 l -24,25 -25,24 v 316 c 0,173 1,315 3,315 1,0 155,-153 342,-340 z M 4800,2400 V 320 H 3280 1760 v 80 80 h 1415 1416 l 24,25 25,24 v 1713 1712 l -262,263 -262,263 h 342 342 z m -640,160 V 1840 H 2240 320 v 720 720 h 1920 1920 z"
       id="path17"
       style="fill:#ded5de;fill-opacity:1" />
    <path
       d="m 425,3095 -25,-24 v -511 -511 l 25,-24 24,-25 h 272 c 184,0 285,4 313,12 55,16 138,99 154,154 17,58 17,730 0,788 -16,55 -99,138 -154,154 -28,8 -129,12 -313,12 H 449 Z m 590,-160 25,-24 v -351 -351 l -25,-24 c -24,-25 -24,-25 -240,-25 H 560 v 400 400 h 215 c 216,0 216,0 240,-25 z"
       id="path19"
       style="fill:#ded5de;fill-opacity:1" />
    <path
       d="m 1385,3095 -25,-24 v -511 -511 l 25,-24 24,-25 h 351 351 l 24,25 25,24 v 511 511 l -25,24 -24,25 h -351 -351 z m 615,-535 v -400 h -240 -240 v 400 400 h 240 240 z"
       id="path21"
       style="fill:#ded5de;fill-opacity:1" />
    <path
       d="m 2480,3107 c -49,-16 -133,-102 -148,-153 -8,-29 -12,-146 -12,-394 0,-248 4,-365 12,-394 16,-55 99,-138 154,-154 28,-8 134,-12 338,-12 h 296 v 80 80 h -295 -296 l -24,25 -25,24 v 351 351 l 25,24 24,25 h 296 295 v 80 80 l -302,-1 c -190,-1 -316,-5 -338,-12 z"
       id="path23"
       style="fill:#ded5de;fill-opacity:1" />
    <path
       d="m 3305,3095 c -44,-43 -36,-63 127,-307 l 151,-228 -151,-228 c -163,-244 -171,-264 -127,-307 23,-24 29,-25 160,-25 h 135 v 80 80 h -45 -45 l 82,125 c 46,68 85,124 88,124 3,0 42,-56 88,-124 l 82,-125 h -45 -45 v -80 -80 h 135 c 131,0 137,1 160,25 44,43 36,63 -127,307 l -151,228 151,228 c 163,244 171,264 127,307 -23,24 -29,25 -160,25 h -135 v -80 -80 h 45 45 l -82,-125 c -46,-68 -85,-124 -88,-124 -3,0 -42,56 -88,124 l -82,125 h 45 45 v 80 80 h -135 c -131,0 -137,-1 -160,-25 z"
       id="path25"
       style="fill:#ded5de;fill-opacity:1" />
  </g>
</svg>
