<?xml version="1.0" encoding="UTF-8" standalone="no"?>
<svg
   width="21"
   height="21"
   viewBox="0 0 21 21"
   fill="none"
   version="1.1"
   id="svg11"
   sodipodi:docname="icon_docx.svg"
   inkscape:version="1.2-alpha (0bd5040e, 2022-02-05)"
   xmlns:inkscape="http://www.inkscape.org/namespaces/inkscape"
   xmlns:sodipodi="http://sodipodi.sourceforge.net/DTD/sodipodi-0.dtd"
   xmlns="http://www.w3.org/2000/svg"
   xmlns:svg="http://www.w3.org/2000/svg">
  <defs
     id="defs15" />
  <sodipodi:namedview
     id="namedview13"
     pagecolor="#ffffff"
     bordercolor="#666666"
     borderopacity="1.0"
     inkscape:pageshadow="2"
     inkscape:pageopacity="0.0"
     inkscape:pagecheckerboard="0"
     inkscape:blackoutopacity="0.0"
     showgrid="false"
     inkscape:zoom="15.893066"
     inkscape:cx="23.154751"
     inkscape:cy="16.422256"
     inkscape:window-width="2560"
     inkscape:window-height="966"
     inkscape:window-x="0"
     inkscape:window-y="25"
     inkscape:window-maximized="0"
     inkscape:current-layer="svg11" />
  <g
     transform="matrix(0.00406355,0,0,-0.00406355,0.18749864,20.802691)"
     fill="#000000"
     stroke="none"
     id="g24"
     style="fill:#ded5de;fill-opacity:1">
    <path
       d="m 830,5104 c -42,-18 -86,-58 -108,-99 -15,-27 -17,-109 -20,-871 l -3,-842 -92,-4 c -112,-5 -179,-32 -235,-92 -81,-88 -77,-39 -77,-946 0,-801 0,-805 21,-851 54,-116 140,-169 291,-177 l 92,-5 3,-536 C 705,93 703,119 767,58 832,-4 706,0 2560,0 c 1854,0 1728,-4 1793,58 64,61 62,35 65,623 l 3,536 92,5 c 151,8 237,61 291,177 21,46 21,50 21,851 0,907 4,858 -77,946 -56,60 -123,87 -235,92 l -93,4 -1,302 c -1,165 -4,312 -8,326 -8,30 -994,1160 -1033,1184 -24,15 -138,16 -1270,16 -1088,-1 -1247,-3 -1278,-16 z m 2400,-714 v -530 l 29,-32 29,-33 466,-3 466,-3 V 3540 3290 H 2560 900 v 815 815 H 2065 3230 Z M 2395,2861 c 206,-72 325,-263 325,-521 0,-304 -164,-510 -437,-551 -274,-41 -497,105 -569,371 -23,86 -23,252 0,339 54,203 192,337 391,381 65,15 222,4 290,-19 z m 1225,3 c 30,-9 57,-18 59,-19 2,-2 -7,-47 -20,-100 -19,-77 -26,-94 -39,-90 -95,37 -230,42 -318,12 -134,-46 -212,-169 -212,-332 0,-167 82,-292 219,-332 71,-20 200,-20 269,1 40,11 54,12 57,3 14,-43 34,-172 28,-178 -35,-31 -240,-54 -358,-39 -303,38 -468,228 -467,540 0,173 52,300 166,408 78,74 190,127 306,143 80,11 247,2 310,-17 z m -2425,-8 c 182,-45 301,-146 356,-301 29,-84 36,-236 15,-335 -45,-212 -170,-340 -394,-402 -67,-19 -104,-22 -292,-22 -118,-1 -223,2 -232,6 -17,7 -18,42 -18,532 v 524 l 83,10 c 113,14 407,7 482,-12 z m 2908,-103 c 31,-65 70,-149 87,-188 l 31,-70 65,150 c 36,83 73,167 82,187 l 17,38 h 138 139 l -35,-62 c -19,-35 -87,-152 -150,-262 -105,-181 -115,-201 -102,-220 7,-11 70,-120 140,-241 70,-121 136,-235 147,-252 l 20,-33 h -141 -141 l -96,193 -97,192 -29,-65 c -15,-36 -54,-122 -86,-192 l -57,-127 -137,-1 c -76,0 -138,2 -138,4 0,2 68,122 150,266 83,144 150,267 150,272 0,6 -64,124 -141,262 -78,138 -144,254 -146,259 -2,4 58,7 135,7 h 139 z M 4220,740 V 260 H 2560 900 v 480 480 h 1660 1660 z"
       id="path18"
       style="fill:#ded5de;fill-opacity:1" />
    <path
       d="m 2148,2686 c -71,-19 -112,-56 -154,-140 -32,-67 -37,-84 -41,-177 -6,-122 11,-207 57,-279 51,-79 109,-112 202,-111 140,0 229,109 252,307 14,113 -30,272 -92,337 -57,60 -143,84 -224,63 z"
       id="path20"
       style="fill:#ded5de;fill-opacity:1" />
    <path
       d="m 880,2336 v -356 h 80 c 242,0 372,145 358,401 -7,138 -57,222 -163,277 -43,22 -66,27 -162,30 l -113,4 z"
       id="path22"
       style="fill:#ded5de;fill-opacity:1" />
  </g>
</svg>
