<svg width="28" height="21" viewBox="0 0 28 21" fill="none" xmlns="http://www.w3.org/2000/svg">
<path d="M18.2415 0.0786298C17.7746 0.198743 17.3555 0.494722 17.154 0.855047C17.0372 1.06523 17.0319 1.10812 17.016 2.60091L17.0001 4.13229L15.5731 4.14514C14.2256 4.15799 14.1407 4.16215 13.9975 4.2481C13.9179 4.2953 13.7959 4.40253 13.7322 4.47975C13.4829 4.77145 13.6315 5.23472 14.0346 5.41917C14.2256 5.50496 14.2999 5.50923 16.1301 5.50923C18.2626 5.50923 18.2786 5.50507 18.5332 5.20041L18.6658 5.03309L18.6976 3.22288L18.7295 1.41267L22.114 4.48831L25.4985 7.56824L22.114 10.6439L18.7295 13.7238L18.703 11.8921C18.6765 10.1291 18.6711 10.0562 18.565 9.94467C18.5067 9.88031 18.39 9.78596 18.3104 9.73876C18.1672 9.64869 18.1088 9.6487 14.1938 9.63581L10.2204 9.62712L10.2044 8.06999C10.1885 6.55148 10.1832 6.51287 10.0665 6.29839C9.79596 5.81796 9.23895 5.53485 8.57053 5.53056C8.20979 5.53056 8.13022 5.54756 7.72174 5.70642C7.47241 5.80506 7.18594 5.94233 7.07985 6.00669C6.96844 6.07533 5.33983 7.53379 3.45658 9.24963L0.0296059 12.3724V13.0588V13.7451L3.45128 16.8679C7.19655 20.2782 7.2443 20.3168 8.02943 20.5184C8.3212 20.5956 8.48034 20.6128 8.68193 20.5956C9.24956 20.5399 9.75352 20.2267 10.04 19.7591L10.1885 19.5146L10.2045 18.0219C10.2098 17.2025 10.2257 16.5291 10.231 16.5248C10.2363 16.5248 10.8676 16.5078 11.6315 16.4949C12.9312 16.4692 13.0267 16.4651 13.1699 16.3791C13.6898 16.066 13.6898 15.5427 13.1699 15.2295C13.0214 15.1437 12.963 15.1394 11.0373 15.1394C9.11694 15.1394 9.05328 15.1436 8.91005 15.2295C8.83047 15.2767 8.71377 15.3711 8.65541 15.4354C8.54931 15.547 8.54401 15.6199 8.51748 17.3829L8.49099 19.2103L5.10645 16.1346L1.72721 13.059L5.10645 9.98335L8.49099 6.90771L8.51748 8.73078L8.54398 10.5581L8.68721 10.7083C8.97898 11.0128 8.75617 11 13.1009 11H17L17.016 12.5571C17.0319 14.0756 17.0372 14.1142 17.1539 14.3287C17.3926 14.7534 17.9231 15.0579 18.5173 15.1051C18.9204 15.1395 19.4509 14.9936 19.9549 14.7148C20.2944 14.526 20.8196 14.0627 23.7691 11.3775L27.1909 8.25891V7.56829V6.87766L23.7162 3.71624C19.9762 0.31459 20.008 0.340329 19.2494 0.121559C18.8462 0.0100248 18.5704 -0.00282797 18.2415 0.0786586L18.2415 0.0786298Z" fill="#DED5DE"/>
</svg>
